<svg width="34" height="30" viewBox="0 0 34 30" fill="none" xmlns="http://www.w3.org/2000/svg">
<path fill-rule="evenodd" clip-rule="evenodd" d="M17 3.52941C16.0983 3.52941 15.2335 3.90126 14.5958 4.56315C13.9582 5.22505 13.6 6.12277 13.6 7.05882H20.4C20.4 6.12277 20.0418 5.22505 19.4042 4.56315C18.7665 3.90126 17.9017 3.52941 17 3.52941ZM11.1641 10.5882C10.603 11.6941 10.273 12.9143 10.2 14.1685V19.4118C10.2 21.2839 10.9164 23.0793 12.1917 24.4031C13.0579 25.3023 14.1338 25.9338 15.3 26.2465V17.6471C15.3 16.6724 16.0611 15.8824 17 15.8824C17.9389 15.8824 18.7 16.6724 18.7 17.6471V26.2465C19.8662 25.9338 20.9421 25.3023 21.8083 24.4031C23.0836 23.0793 23.8 21.2839 23.8 19.4118V14.1685C23.727 12.9143 23.3971 11.6941 22.8359 10.5882H11.1641ZM26.3919 10.185C26.8537 11.4055 27.1273 12.6999 27.1974 14.0205C27.1991 14.0529 27.2 14.0852 27.2 14.1176H32.3C33.2389 14.1176 34 14.9077 34 15.8824C34 16.857 33.2389 17.6471 32.3 17.6471H27.2V19.4118C27.2 20.3272 27.0858 21.2305 26.8656 22.1009L31.4714 24.9554C32.2776 25.455 32.5409 26.5384 32.0597 27.3752C31.5784 28.212 30.5347 28.4854 29.7286 27.9858L25.4537 25.3365C25.0916 25.8933 24.6767 26.4169 24.2125 26.8988C22.2996 28.8845 19.7052 30 17 30C14.2948 30 11.7004 28.8845 9.78751 26.8988C9.32327 26.4169 8.90841 25.8933 8.54629 25.3365L4.27144 27.9858C3.46529 28.4854 2.42162 28.212 1.94034 27.3752C1.45906 26.5384 1.72242 25.455 2.52856 24.9554L7.13443 22.1009C6.91421 21.2305 6.8 20.3272 6.8 19.4118V17.6471H1.7C0.761116 17.6471 0 16.857 0 15.8824C0 14.9077 0.761116 14.1176 1.7 14.1176H6.8C6.8 14.0852 6.80086 14.0529 6.80258 14.0205C6.87272 12.6999 7.14632 11.4055 7.60809 10.185L2.48361 6.78048C1.69281 6.25511 1.46203 5.16374 1.96814 4.34285C2.47425 3.52195 3.5256 3.28238 4.31639 3.80776L9.46845 7.23057C9.69365 7.11912 9.94298 7.05882 10.2 7.05882C10.2 5.18671 10.9164 3.39127 12.1917 2.06748C13.4669 0.743695 15.1965 0 17 0C18.8035 0 20.5331 0.743695 21.8083 2.06748C23.0836 3.39127 23.8 5.18671 23.8 7.05882C24.057 7.05882 24.3064 7.11912 24.5316 7.23057L29.6836 3.80776C30.4744 3.28238 31.5258 3.52195 32.0319 4.34285C32.538 5.16374 32.3072 6.25511 31.5164 6.78048L26.3919 10.185Z" fill="#98B7FF" fill-opacity="0.22"/>
</svg>
