<svg width="97" height="19" viewBox="0 0 97 19" fill="none" xmlns="http://www.w3.org/2000/svg">
<path d="M7.5374 2.92626C6.40321 2.92626 6.07529 3.43025 6.07529 4.54186V6.38591H9.1006L8.79736 9.36512H6.07647V18.4064H2.44587V9.36512H0V6.38591H2.44587V4.5925C2.44587 1.58739 3.65528 4.73431e-05 7.02966 4.73431e-05C7.73678 -0.00161429 8.44332 0.0404651 9.14526 0.126045V2.9298L7.5374 2.92626Z" fill="white"/>
<path d="M9.35205 12.0169C9.35205 8.65853 10.9399 6.12915 14.2673 6.12915C16.082 6.12915 17.1903 7.06413 17.7204 8.22519V6.38586H21.1982V18.4063H17.7204V16.5882C17.2162 17.7504 16.082 18.6595 14.2673 18.6595C10.9399 18.6595 9.35205 16.1336 9.35205 12.7717V12.0169ZM12.9815 12.8259C12.9815 14.6181 13.6361 15.8051 15.3251 15.8051C16.8131 15.8051 17.5688 14.7194 17.5688 13.0025V11.7955C17.5688 10.0787 16.8131 8.99296 15.3251 8.99296C13.6361 8.99296 12.9815 10.1799 12.9815 11.9722V12.8259Z" fill="white"/>
<path d="M28.7604 6.13281C30.1708 6.13281 31.5071 6.43662 32.2382 6.94061L31.4319 9.5171C30.6757 9.1563 29.8495 8.96655 29.0119 8.96129C27.0456 8.96129 26.1911 10.0976 26.1911 12.0429V12.7495C26.1911 14.6948 27.0479 15.8311 29.0119 15.8311C29.8495 15.8259 30.6757 15.6361 31.4319 15.2753L32.2382 17.8506C31.5071 18.3558 30.172 18.6596 28.7604 18.6596C24.4998 18.6596 22.5593 16.361 22.5593 12.6741V12.1183C22.5593 8.43139 24.4998 6.13281 28.7604 6.13281Z" fill="white"/>
<path d="M32.7163 12.8555V11.7957C32.7163 8.38667 34.6568 6.14343 38.6153 6.14343C42.3458 6.14343 43.9842 8.41611 43.9842 11.7498V13.6692H36.3446C36.421 15.3107 37.152 16.0431 39.1654 16.0431C40.5276 16.0431 41.9638 15.7652 43.0228 15.3107L43.6869 17.8012C42.729 18.3075 40.7626 18.6855 39.0243 18.6855C34.4299 18.6844 32.7163 16.3881 32.7163 12.8555ZM36.3457 11.2893H40.7321V10.9867C40.7321 9.67373 40.2032 8.6316 38.6165 8.6316C36.9769 8.63278 36.3457 9.66902 36.3457 11.2846V11.2893Z" fill="white"/>
<path d="M57.4384 12.7754C57.4384 16.1338 55.8258 18.6631 52.502 18.6631C50.6873 18.6631 49.4273 17.7541 48.9231 16.5918V18.41H45.4958V0.349856L49.1253 0.0201416V8.05104C49.6542 6.99125 50.8142 6.13163 52.5032 6.13163C55.8305 6.13163 57.4396 8.65748 57.4396 12.0194L57.4384 12.7754ZM53.809 11.9417C53.809 10.2495 53.1543 8.9872 51.4148 8.9872C49.9268 8.9872 49.1206 10.047 49.1206 11.765V13.0274C49.1206 14.7442 49.9268 15.8052 51.4148 15.8052C53.1543 15.8052 53.809 14.5429 53.809 12.8507V11.9417Z" fill="white"/>
<path d="M58.6526 12.6988V12.0936C58.6526 8.63275 60.6189 6.13281 64.6268 6.13281C68.6347 6.13281 70.6022 8.63275 70.6022 12.0936V12.6988C70.6022 16.1585 68.6359 18.6596 64.628 18.6596C60.6201 18.6596 58.6526 16.1585 58.6526 12.6988ZM66.9716 11.8404C66.9716 10.2495 66.3157 8.9872 64.6209 8.9872C62.9261 8.9872 62.2761 10.2495 62.2761 11.8404V12.952C62.2761 14.5429 62.932 15.8052 64.6209 15.8052C66.3099 15.8052 66.9716 14.5429 66.9716 12.952V11.8404Z" fill="white"/>
<path d="M71.8091 12.6988V12.0936C71.8091 8.63275 73.7754 6.13281 77.7833 6.13281C81.7912 6.13281 83.7575 8.63275 83.7575 12.0936V12.6988C83.7575 16.1585 81.7912 18.6596 77.7833 18.6596C73.7754 18.6596 71.8091 16.1585 71.8091 12.6988ZM80.1281 11.8404C80.1281 10.2495 79.4722 8.9872 77.7833 8.9872C76.0943 8.9872 75.4397 10.2495 75.4397 11.8404V12.952C75.4397 14.5429 76.0943 15.8052 77.7833 15.8052C79.4722 15.8052 80.1281 14.5429 80.1281 12.952V11.8404Z" fill="white"/>
<path d="M88.7483 12.1183L92.3272 6.38599H96.1834L92.4282 12.3208L96.335 18.4064H92.4788L88.7483 12.5187V18.4064H85.1177V0.349856L88.7483 0.0201416V12.1183Z" fill="white"/>
</svg>
