<svg width="87" height="22" viewBox="0 0 87 22" fill="none" xmlns="http://www.w3.org/2000/svg">
<path fill-rule="evenodd" clip-rule="evenodd" d="M84.5562 0.208252H66.2095C65.332 0.208252 64.5867 0.902302 64.5867 1.75731V20.187C64.5867 21.0431 65.0757 21.7371 65.9532 21.7371H84.2999C85.1785 21.7371 86.1155 21.0431 86.1155 20.187V1.75731C86.1155 0.902302 85.4348 0.208252 84.5562 0.208252ZM72.7881 8.40973H75.6863V9.88702H75.7181C76.16 9.09045 77.465 8.28158 79.0787 8.28158C82.1758 8.28158 83.04 9.92597 83.04 12.9718V18.6616H79.9644V13.5326C79.9644 12.1691 79.4201 10.9727 78.1468 10.9727C76.6008 10.9727 75.8637 12.0194 75.8637 13.7376V18.6616H72.7881V8.40973ZM67.6622 18.6616H70.7378V8.40973H67.6622V18.6616ZM71.1222 4.82158C71.1222 5.88367 70.2621 6.7438 69.2 6.7438C68.1379 6.7438 67.2778 5.88367 67.2778 4.82158C67.2778 3.75949 68.1379 2.89936 69.2 2.89936C70.2621 2.89936 71.1222 3.75949 71.1222 4.82158Z" fill="white"/>
<path d="M61.5113 18.6615H58.6407V17.4405H58.61C57.9713 18.1806 56.862 18.7896 54.9819 18.7896C52.4189 18.7896 50.2117 16.8612 50.2117 13.5468C50.2117 10.3892 52.3871 8.28146 55.0782 8.28146C56.7441 8.28146 57.7786 8.87402 58.4049 9.63061H58.4357V3.28369H61.5113V18.6615ZM55.8512 10.5881C54.093 10.5881 53.1047 11.8419 53.1047 13.5089C53.1047 15.1769 54.093 16.4829 55.8512 16.4829C57.6114 16.4829 58.6407 15.2107 58.6407 13.5089C58.6407 11.7599 57.6114 10.5881 55.8512 10.5881Z" fill="white"/>
<path d="M48.8616 17.0097C48.1357 17.9498 46.641 18.7894 44.2278 18.7894C41.0076 18.7894 38.9573 16.658 38.9573 13.3077C38.9573 10.3316 40.8149 8.28125 44.318 8.28125C47.3433 8.28125 49.2091 10.2681 49.2091 13.7629C49.2091 14.1125 49.1527 14.458 49.1527 14.458H41.8596L41.877 14.7748C42.079 15.6585 42.7464 16.739 44.278 16.739C45.6148 16.739 46.5313 16.0204 46.9455 15.4575L48.8616 17.0097ZM46.2494 12.5101C46.2699 11.4286 45.4764 10.3316 44.2257 10.3316C42.7371 10.3316 41.9426 11.4942 41.8596 12.5101H46.2494Z" fill="white"/>
<path d="M38.9569 8.40961H35.3688L31.7806 12.5104V3.28369H28.7051V18.6615H31.7806V13.5355L35.5728 18.6615H39.204L34.8562 13.0568L38.9569 8.40961Z" fill="white"/>
<path d="M16.4031 8.40952H19.3013V9.88681H19.3331C19.7749 9.09024 21.08 8.28137 22.6936 8.28137C25.7907 8.28137 26.6549 10.2467 26.6549 12.9716V18.6614H23.5794V13.5324C23.5794 12.0233 23.035 10.9725 21.7617 10.9725C20.2157 10.9725 19.4786 12.1966 19.4786 13.7374V18.6614H16.4031V8.40952Z" fill="white"/>
<path d="M11.277 18.6615H14.3526V8.40967H11.277V18.6615ZM12.8158 6.66686C13.8349 6.66686 14.6601 5.84056 14.6601 4.82153C14.6601 3.80249 13.8349 2.9762 12.8158 2.9762C11.7978 2.9762 10.9695 3.80249 10.9695 4.82153C10.9695 5.84056 11.7978 6.66686 12.8158 6.66686Z" fill="white"/>
<path d="M3.07555 3.28369H0V18.6615H9.22666V15.5859H3.07555V3.28369Z" fill="white"/>
</svg>
