<svg width="79" height="18" viewBox="0 0 79 18" fill="none" xmlns="http://www.w3.org/2000/svg">
<path d="M18.8294 1.39781L18.8528 1.39268V1.21196H14.0618L9.61323 11.6144L5.16462 1.21196H0.0017169V1.39268L0.0248889 1.39781C0.899391 1.59419 1.34336 1.88705 1.34336 2.94324V15.3081C1.34336 16.3643 0.897671 16.6571 0.0231689 16.8535L0 16.8586V17.0399H3.50287V16.8592L3.4797 16.8541C2.60519 16.6577 2.16122 16.3648 2.16122 15.3087V3.66045L7.87595 17.0399H8.20006L14.0813 3.28733V15.614C14.0063 16.4482 13.5664 16.7058 12.7745 16.8837L12.7511 16.8891V17.0684H18.8528V16.8891L18.8294 16.8837C18.0367 16.7058 17.5862 16.4482 17.5112 15.614L17.5072 2.94324H17.5112C17.5112 1.88705 17.9552 1.59419 18.8294 1.39781ZM21.6165 9.58886C21.7164 7.3672 22.5182 5.76371 23.8639 5.73611C24.2789 5.74294 24.6271 5.87841 24.8977 6.13911C25.4727 6.69438 25.743 7.85474 25.7013 9.58886H21.6165ZM21.5562 10.215H28.7078V10.1851C28.6875 8.48628 28.1929 7.16484 27.2391 6.25751C26.4147 5.47341 25.1941 5.04194 23.9119 5.04194H23.8833C23.2179 5.04194 22.4018 5.20246 21.8211 5.49333C21.16 5.79787 20.577 6.25324 20.0918 6.85092C19.3108 7.81375 18.8377 9.11499 18.7227 10.5773C18.719 10.6211 18.7158 10.665 18.7127 10.7088C18.7095 10.7526 18.7075 10.7919 18.7055 10.8337C18.6954 11.0393 18.6919 11.2452 18.6952 11.4511C18.7728 14.7631 20.571 17.4099 23.7649 17.4099C26.5683 17.4099 28.2009 15.371 28.608 12.6342L28.4023 12.5622C27.6871 14.033 26.4027 14.9244 24.9409 14.8157C22.9453 14.6671 21.4166 12.6541 21.5553 10.2156M36.7937 14.7033C36.5592 15.2569 36.0697 15.5614 35.4137 15.5614C34.7578 15.5614 34.1582 15.1134 33.7323 14.2994C33.2746 13.4257 33.0337 12.1905 33.0337 10.7273C33.0337 7.68198 33.9857 5.7122 35.4592 5.7122C36.0763 5.7122 36.562 6.01673 36.7937 6.5481V14.7033ZM41.5378 16.8743C40.6633 16.6685 40.2194 16.362 40.2194 15.252V0.483643L34.9063 2.04102V2.23171L34.9389 2.22915C35.6718 2.17024 36.169 2.27099 36.4576 2.53624C36.6836 2.74401 36.7937 3.06277 36.7937 3.51132V5.53603C36.2699 5.20332 35.6469 5.04137 34.8908 5.04137C33.3575 5.04137 31.9561 5.68374 30.9454 6.85035C29.8918 8.0662 29.3349 9.72775 29.3349 11.6548C29.3346 15.0966 31.0375 17.4099 33.5721 17.4099C35.0547 17.4099 36.2476 16.6016 36.7937 15.2384V17.0684H41.561V16.8788L41.5378 16.8743ZM46.0946 2.49213C46.0946 1.41745 45.2801 0.606878 44.1997 0.606878C43.1244 0.606878 42.283 1.43509 42.283 2.49213C42.283 3.54917 43.1252 4.37738 44.1997 4.37738C45.2801 4.37738 46.0946 3.56681 46.0946 2.49213ZM47.3487 16.8743C46.4742 16.6685 46.0302 16.362 46.0302 15.252H46.0265V5.07638L41.2589 6.43824V6.62323L41.2875 6.62579C42.3191 6.71715 42.6014 7.07064 42.6014 8.26998V17.0684H47.373V16.8788L47.3487 16.8743ZM59.5651 16.8743C58.6906 16.6685 58.2466 16.362 58.2466 15.252V5.07638L53.7073 6.39327V6.57883L53.7342 6.58168C54.5776 6.66991 54.8213 7.0436 54.8213 8.24835V14.6805C54.5401 15.2341 54.0126 15.5628 53.3735 15.585C52.3371 15.585 51.7664 14.8886 51.7664 13.6241V5.07667L46.9988 6.43852V6.62323L47.0274 6.62579C48.059 6.71687 48.3416 7.07035 48.3416 8.26998V13.7137C48.3392 14.0937 48.3724 14.4731 48.4409 14.847L48.5267 15.2184C48.9303 16.6574 49.9879 17.4099 51.6448 17.4099C53.0482 17.4099 54.2783 16.5456 54.8201 15.1931V17.0715H59.5877V16.882L59.5651 16.8743ZM78.0858 17.0684V16.8786L78.0627 16.8731C77.1138 16.6554 76.7442 16.245 76.7442 15.4094V8.48771C76.7442 6.32952 75.5258 5.04137 73.4851 5.04137C71.9975 5.04137 70.7431 5.89662 70.2602 7.22888C69.8766 5.81722 68.7727 5.04137 67.1404 5.04137C65.7066 5.04137 64.583 5.79417 64.101 7.0658V5.07724L59.3334 6.38331V6.56944L59.362 6.572C60.3812 6.66194 60.6759 7.02567 60.6759 8.19428V17.0684H65.1242V16.8788L65.1008 16.8731C64.3438 16.6961 64.0995 16.3734 64.0995 15.5452V7.6114C64.2998 7.14606 64.7034 6.59477 65.5013 6.59477C66.4922 6.59477 66.9945 7.27783 66.9945 8.62347V17.0684H71.444V16.8788L71.4205 16.8731C70.6636 16.6961 70.4193 16.3734 70.4193 15.5452V8.48685C70.4212 8.22294 70.4002 7.95935 70.3564 7.69905C70.5686 7.1933 70.9954 6.59477 71.8259 6.59477C72.8308 6.59477 73.3191 7.25819 73.3191 8.62347V17.0684H78.0858Z" fill="white"/>
</svg>
