<svg width="97" height="24" viewBox="0 0 97 24" fill="none" xmlns="http://www.w3.org/2000/svg">
<path d="M37.5773 18.5356V7.05164H33.4373V5.21564H43.8053V7.05164H39.6653V18.5356H37.5773ZM46.2301 18.5356L43.1881 8.99564H45.2581L47.3461 15.8896L49.5421 8.99564H51.4501L53.6461 15.8896L55.7341 8.99564H57.8221L54.7621 18.5356H52.5841L50.4961 11.9836L48.4261 18.5356H46.2301ZM60.8461 7.35764C60.4741 7.35764 60.1681 7.23164 59.9281 6.97964C59.6881 6.72764 59.5681 6.43364 59.5681 6.09764C59.5681 5.74964 59.6881 5.45564 59.9281 5.21564C60.1681 4.96364 60.4741 4.83764 60.8461 4.83764C61.2181 4.83764 61.5241 4.96364 61.7641 5.21564C62.0161 5.45564 62.1421 5.74964 62.1421 6.09764C62.1421 6.44564 62.0161 6.74564 61.7641 6.99764C61.5241 7.23764 61.2181 7.35764 60.8461 7.35764ZM59.8381 18.5356V8.99564H61.8901V18.5356H59.8381ZM68.7012 18.7156C67.9452 18.7156 67.3392 18.5776 66.8832 18.3016C66.4272 18.0256 66.0972 17.6596 65.8932 17.2036C65.7012 16.7356 65.6052 16.2316 65.6052 15.6916V10.6516H63.9312V8.99564H65.6052V6.61964H67.6572V8.99564H69.8892V10.6516H67.6572V15.6556C67.6572 16.5556 68.1552 17.0056 69.1512 17.0056C69.4032 17.0056 69.6372 16.9876 69.8532 16.9516C70.0692 16.9156 70.1772 16.8976 70.1772 16.8976V18.5716C70.1772 18.5716 70.0272 18.5956 69.7272 18.6436C69.4392 18.6916 69.0972 18.7156 68.7012 18.7156ZM76.3125 18.7156C75.5565 18.7156 74.9505 18.5776 74.4945 18.3016C74.0385 18.0256 73.7085 17.6596 73.5045 17.2036C73.3125 16.7356 73.2165 16.2316 73.2165 15.6916V10.6516H71.5425V8.99564H73.2165V6.61964H75.2685V8.99564H77.5005V10.6516H75.2685V15.6556C75.2685 16.5556 75.7665 17.0056 76.7625 17.0056C77.0145 17.0056 77.2485 16.9876 77.4645 16.9516C77.6805 16.9156 77.7885 16.8976 77.7885 16.8976V18.5716C77.7885 18.5716 77.6385 18.5956 77.3385 18.6436C77.0505 18.6916 76.7085 18.7156 76.3125 18.7156ZM84.0892 18.7156C83.2852 18.7156 82.5892 18.5776 82.0012 18.3016C81.4252 18.0136 80.9452 17.6356 80.5612 17.1676C80.1892 16.6876 79.9072 16.1536 79.7152 15.5656C79.5352 14.9776 79.4452 14.3776 79.4452 13.7656C79.4452 13.1656 79.5352 12.5716 79.7152 11.9836C79.8952 11.3956 80.1712 10.8616 80.5432 10.3816C80.9152 9.90164 81.3892 9.52364 81.9652 9.24764C82.5412 8.95964 83.2192 8.81564 83.9992 8.81564C84.8392 8.81564 85.5772 9.00764 86.2132 9.39164C86.8612 9.76364 87.3652 10.3216 87.7252 11.0656C88.0972 11.7976 88.2832 12.7096 88.2832 13.8016V14.3596H81.5152C81.5632 15.0916 81.8092 15.7216 82.2532 16.2496C82.6972 16.7776 83.3092 17.0416 84.0892 17.0416C84.5332 17.0416 84.8992 16.9696 85.1872 16.8256C85.4752 16.6696 85.6972 16.4956 85.8532 16.3036C86.0092 16.1116 86.1172 15.9436 86.1772 15.7996C86.2492 15.6556 86.2852 15.5836 86.2852 15.5836H88.1932C88.1932 15.5836 88.1632 15.6916 88.1032 15.9076C88.0432 16.1116 87.9292 16.3696 87.7612 16.6816C87.6052 16.9936 87.3772 17.3056 87.0772 17.6176C86.7772 17.9296 86.3812 18.1936 85.8892 18.4096C85.3972 18.6136 84.7972 18.7156 84.0892 18.7156ZM81.5332 12.9196H86.3032C86.2552 12.0796 86.0032 11.4616 85.5472 11.0656C85.1032 10.6696 84.5812 10.4716 83.9812 10.4716C83.3092 10.4716 82.7512 10.6936 82.3072 11.1376C81.8632 11.5696 81.6052 12.1636 81.5332 12.9196ZM90.5056 18.5356V8.99564H92.5576V10.2556H92.6296C92.8096 9.88364 93.0916 9.55364 93.4756 9.26564C93.8716 8.96564 94.4416 8.81564 95.1856 8.81564C95.4136 8.81564 95.6056 8.82764 95.7616 8.85164C95.9296 8.87564 96.0136 8.88764 96.0136 8.88764V10.8676C96.0136 10.8676 95.9236 10.8556 95.7436 10.8316C95.5636 10.8076 95.3596 10.7956 95.1316 10.7956C94.2916 10.7956 93.6496 11.0356 93.2056 11.5156C92.7736 11.9836 92.5576 12.7456 92.5576 13.8016V18.5356H90.5056Z" fill="white" fill-opacity="0.16"/>
<path d="M17.696 0.748901H21.1414L13.6141 9.35212L22.4694 21.0592H15.5358L10.1051 13.9589L3.89124 21.0592H0.443701L8.49489 11.857L0 0.748901H7.10963L12.0185 7.23881L17.696 0.748901ZM16.4867 18.9969H18.3959L6.07225 2.70285H4.02351L16.4867 18.9969Z" fill="white"/>
</svg>
